<mxfile host="app.diagrams.net" modified="2021-08-29T08:34:46.370Z" agent="5.0 (Macintosh; Intel Mac OS X 10_15_7) AppleWebKit/605.1.15 (KHTML, like Gecko) Version/14.1.2 Safari/605.1.15" etag="d4pNv8hm-VSg5oH_a7vl" version="15.0.3" type="github">
  <diagram id="C5RBs43oDa-KdzZeNtuy" name="Page-1">
    <mxGraphModel dx="945" dy="734" grid="1" gridSize="10" guides="1" tooltips="1" connect="1" arrows="1" fold="1" page="1" pageScale="1" pageWidth="827" pageHeight="1169" math="0" shadow="0">
      <root>
        <mxCell id="WIyWlLk6GJQsqaUBKTNV-0" />
        <mxCell id="WIyWlLk6GJQsqaUBKTNV-1" parent="WIyWlLk6GJQsqaUBKTNV-0" />
        <mxCell id="VJoyEwDaRZjI09AiqhOI-19" value="" style="rounded=0;whiteSpace=wrap;html=1;fontSize=16;dashed=1;" vertex="1" parent="WIyWlLk6GJQsqaUBKTNV-1">
          <mxGeometry x="50" y="70" width="960" height="470" as="geometry" />
        </mxCell>
        <mxCell id="VJoyEwDaRZjI09AiqhOI-5" style="rounded=0;orthogonalLoop=1;jettySize=auto;html=1;exitX=1;exitY=0.5;exitDx=0;exitDy=0;entryX=0;entryY=0.5;entryDx=0;entryDy=0;fontSize=16;" edge="1" parent="WIyWlLk6GJQsqaUBKTNV-1" source="VJoyEwDaRZjI09AiqhOI-0" target="VJoyEwDaRZjI09AiqhOI-4">
          <mxGeometry relative="1" as="geometry" />
        </mxCell>
        <mxCell id="VJoyEwDaRZjI09AiqhOI-0" value="Clang Frontend&lt;br style=&quot;font-size: 16px;&quot;&gt;C/C++/OC" style="rounded=0;whiteSpace=wrap;html=1;fontSize=16;" vertex="1" parent="WIyWlLk6GJQsqaUBKTNV-1">
          <mxGeometry x="110" y="120" width="170" height="70" as="geometry" />
        </mxCell>
        <mxCell id="VJoyEwDaRZjI09AiqhOI-8" style="edgeStyle=none;rounded=0;orthogonalLoop=1;jettySize=auto;html=1;exitX=1;exitY=0.5;exitDx=0;exitDy=0;fontSize=16;entryX=0;entryY=0.5;entryDx=0;entryDy=0;" edge="1" parent="WIyWlLk6GJQsqaUBKTNV-1" source="VJoyEwDaRZjI09AiqhOI-1" target="VJoyEwDaRZjI09AiqhOI-4">
          <mxGeometry relative="1" as="geometry">
            <mxPoint x="360" y="370" as="targetPoint" />
          </mxGeometry>
        </mxCell>
        <mxCell id="VJoyEwDaRZjI09AiqhOI-1" value="LLVM-GCC Frontend&lt;br style=&quot;font-size: 16px&quot;&gt;Fortran" style="rounded=0;whiteSpace=wrap;html=1;fontSize=16;" vertex="1" parent="WIyWlLk6GJQsqaUBKTNV-1">
          <mxGeometry x="110" y="320" width="170" height="70" as="geometry" />
        </mxCell>
        <mxCell id="VJoyEwDaRZjI09AiqhOI-7" style="edgeStyle=none;rounded=0;orthogonalLoop=1;jettySize=auto;html=1;exitX=1;exitY=0.5;exitDx=0;exitDy=0;entryX=0;entryY=0.5;entryDx=0;entryDy=0;fontSize=16;" edge="1" parent="WIyWlLk6GJQsqaUBKTNV-1" source="VJoyEwDaRZjI09AiqhOI-2" target="VJoyEwDaRZjI09AiqhOI-4">
          <mxGeometry relative="1" as="geometry" />
        </mxCell>
        <mxCell id="VJoyEwDaRZjI09AiqhOI-2" value="Swift Frontend&lt;br style=&quot;font-size: 16px&quot;&gt;Swift" style="rounded=0;whiteSpace=wrap;html=1;fontSize=16;" vertex="1" parent="WIyWlLk6GJQsqaUBKTNV-1">
          <mxGeometry x="110" y="220" width="170" height="70" as="geometry" />
        </mxCell>
        <mxCell id="VJoyEwDaRZjI09AiqhOI-9" style="edgeStyle=none;rounded=0;orthogonalLoop=1;jettySize=auto;html=1;exitX=1;exitY=0.5;exitDx=0;exitDy=0;entryX=0;entryY=0.5;entryDx=0;entryDy=0;fontSize=16;" edge="1" parent="WIyWlLk6GJQsqaUBKTNV-1" source="VJoyEwDaRZjI09AiqhOI-3" target="VJoyEwDaRZjI09AiqhOI-4">
          <mxGeometry relative="1" as="geometry" />
        </mxCell>
        <mxCell id="VJoyEwDaRZjI09AiqhOI-3" value="GHC Frontend&lt;br style=&quot;font-size: 16px&quot;&gt;Haskell" style="rounded=0;whiteSpace=wrap;html=1;fontSize=16;" vertex="1" parent="WIyWlLk6GJQsqaUBKTNV-1">
          <mxGeometry x="110" y="420" width="170" height="70" as="geometry" />
        </mxCell>
        <mxCell id="VJoyEwDaRZjI09AiqhOI-15" style="edgeStyle=none;rounded=0;orthogonalLoop=1;jettySize=auto;html=1;exitX=1;exitY=0.5;exitDx=0;exitDy=0;entryX=0;entryY=0.5;entryDx=0;entryDy=0;fontSize=16;" edge="1" parent="WIyWlLk6GJQsqaUBKTNV-1" source="VJoyEwDaRZjI09AiqhOI-4" target="VJoyEwDaRZjI09AiqhOI-11">
          <mxGeometry relative="1" as="geometry" />
        </mxCell>
        <mxCell id="VJoyEwDaRZjI09AiqhOI-16" style="edgeStyle=none;rounded=0;orthogonalLoop=1;jettySize=auto;html=1;exitX=1;exitY=0.5;exitDx=0;exitDy=0;entryX=0;entryY=0.5;entryDx=0;entryDy=0;fontSize=16;" edge="1" parent="WIyWlLk6GJQsqaUBKTNV-1" source="VJoyEwDaRZjI09AiqhOI-4" target="VJoyEwDaRZjI09AiqhOI-13">
          <mxGeometry relative="1" as="geometry" />
        </mxCell>
        <mxCell id="VJoyEwDaRZjI09AiqhOI-17" style="edgeStyle=none;rounded=0;orthogonalLoop=1;jettySize=auto;html=1;exitX=1;exitY=0.5;exitDx=0;exitDy=0;entryX=0;entryY=0.5;entryDx=0;entryDy=0;fontSize=16;" edge="1" parent="WIyWlLk6GJQsqaUBKTNV-1" source="VJoyEwDaRZjI09AiqhOI-4" target="VJoyEwDaRZjI09AiqhOI-12">
          <mxGeometry relative="1" as="geometry" />
        </mxCell>
        <mxCell id="VJoyEwDaRZjI09AiqhOI-4" value="LLVM &amp;nbsp;Optimizer" style="rounded=0;whiteSpace=wrap;html=1;fontSize=16;" vertex="1" parent="WIyWlLk6GJQsqaUBKTNV-1">
          <mxGeometry x="440" y="270" width="170" height="70" as="geometry" />
        </mxCell>
        <mxCell id="VJoyEwDaRZjI09AiqhOI-10" value="LLVM IR" style="text;html=1;strokeColor=none;fillColor=none;align=center;verticalAlign=middle;whiteSpace=wrap;rounded=0;fontSize=16;" vertex="1" parent="WIyWlLk6GJQsqaUBKTNV-1">
          <mxGeometry x="310" y="292.5" width="90" height="25" as="geometry" />
        </mxCell>
        <mxCell id="VJoyEwDaRZjI09AiqhOI-11" value="LLVM&lt;br&gt;X86 Backend" style="rounded=0;whiteSpace=wrap;html=1;fontSize=16;" vertex="1" parent="WIyWlLk6GJQsqaUBKTNV-1">
          <mxGeometry x="780" y="120" width="170" height="70" as="geometry" />
        </mxCell>
        <mxCell id="VJoyEwDaRZjI09AiqhOI-12" value="LLVM&lt;br&gt;PowerPC Backend" style="rounded=0;whiteSpace=wrap;html=1;fontSize=16;" vertex="1" parent="WIyWlLk6GJQsqaUBKTNV-1">
          <mxGeometry x="780" y="420" width="170" height="70" as="geometry" />
        </mxCell>
        <mxCell id="VJoyEwDaRZjI09AiqhOI-13" value="LLVM&lt;br&gt;ARM Backend" style="rounded=0;whiteSpace=wrap;html=1;fontSize=16;" vertex="1" parent="WIyWlLk6GJQsqaUBKTNV-1">
          <mxGeometry x="780" y="270" width="170" height="70" as="geometry" />
        </mxCell>
        <mxCell id="VJoyEwDaRZjI09AiqhOI-18" value="LLVM IR" style="text;html=1;strokeColor=none;fillColor=none;align=center;verticalAlign=middle;whiteSpace=wrap;rounded=0;fontSize=16;" vertex="1" parent="WIyWlLk6GJQsqaUBKTNV-1">
          <mxGeometry x="650" y="315" width="90" height="25" as="geometry" />
        </mxCell>
      </root>
    </mxGraphModel>
  </diagram>
</mxfile>
